PathFileType	4	(X/Y/Z)	Patient4_TMGait_0pt4_03_right_40.trc.trc
DataRate	CameraRate	NumFrames	NumMarkers	Units	OrigDataRate	OrigDataStartFrame	OrigNumFrames
77.777777777778	77.777777777778	4	33	mm	77.777777777778	71	       141
Frame#	Time	Sacral			L.Shoulder			Chest			R.Shoulder			Neck			R.ASIS			L.ASIS			R.Thigh.Superior			R.Thigh.Lateral			R.Thigh.Inferior			R.Patella			L.Thigh.Superior			L.Thigh.Lateral			L.Thigh.Inferior			L.Patella			L.Shank.Superior			L.Shank.Lateral			L.Shank.Inferior			R.Shank.Superior			R.Shank.Lateral			R.Shank.Inferior			R.Heel			R.Midfoot.Superior			R.Midfoot.Lateral			R.Toe			L.Heel			L.Midfoot.Lateral			L.Midfoot.Superior			L.Toe			L.Elbow			L.Wrist			R.Elbow			R.Wrist			
		X1	Y1	Z1	X2	Y2	Z2	X3	Y3	Z3	X4	Y4	Z4	X5	Y5	Z5	X6	Y6	Z6	X7	Y7	Z7	X8	Y8	Z8	X9	Y9	Z9	X10	Y10	Z10	X11	Y11	Z11	X12	Y12	Z12	X13	Y13	Z13	X14	Y14	Z14	X15	Y15	Z15	X16	Y16	Z16	X17	Y17	Z17	X18	Y18	Z18	X19	Y19	Z19	X20	Y20	Z20	X21	Y21	Z21	X22	Y22	Z22	X23	Y23	Z23	X24	Y24	Z24	X25	Y25	Z25	X26	Y26	Z26	X27	Y27	Z27	X28	Y28	Z28	X29	Y29	Z29	X30	Y30	Z30	X31	Y31	Z31	X32	Y32	Z32	X33	Y33	Z33	

71	53.290000000000	902.224714655596	1001.817580280355	527.951585961642	1057.857559329645	1425.381237395375	327.559061482392	1183.331217733231	1356.662306581092	471.520609139485	1129.203654086720	1431.524060117443	655.555202865551	1067.907604390291	1489.413233387730	484.381316754998	1140.453771355064	933.688913863706	619.521196316465	1098.226302454252	956.475780458429	347.827668973984	1140.565421021710	722.355396682539	592.602735944504	1044.399626117781	627.284687946458	663.830837093764	1100.862537766577	562.555408678646	580.471825712423	1083.451174489640	477.454525515803	587.369631197919	1171.543196613805	763.617264145595	374.305520625704	1111.354938497939	637.136664743152	301.927020075920	1214.251035307829	576.295385026907	359.478523052286	1234.492418908067	509.464479306802	357.268354519996	1215.420645537867	436.982401399698	346.523583531910	1141.399595487513	310.777273285236	297.406015117954	1224.431096372186	207.429920721753	350.961223960706	1045.405948395393	392.458094750083	598.984964621518	964.848094838163	300.405948775125	669.316495150232	987.255041865578	200.059080052126	605.086881193575	836.416254679746	43.149238365034	584.862321032405	1007.441236072933	96.112403358100	615.638173502740	920.793891112125	36.488044086323	658.188988163733	1128.581871125504	43.897385305956	642.910005529931	1129.899237020882	38.243769664611	389.796655928071	1202.538355160699	38.207744187161	308.200592093717	1280.594938971191	107.496514121714	331.279853840403	1410.891474434727	65.956106494412	301.054970296208	927.337718765230	1090.216697201847	251.113554007530	906.216823031782	832.475558240007	234.417591984316	1271.690033612384	1123.322528541333	761.335386484624	1454.046786743969	1260.387904753489	665.576766928868	
72	53.302857142857	904.470684965336	1000.930507493033	525.067573341063	1059.058363897875	1424.366154023236	324.181445351164	1184.626138174004	1356.241484479376	468.349201354234	1130.047736645271	1431.134528501559	652.248592037317	1068.818213415329	1488.692375846953	480.956935973559	1142.861440716868	932.884271962934	616.938272826567	1100.634471845443	955.504764733207	345.392277308578	1142.325215567073	721.231288579771	590.657156028677	1045.116030391883	626.684767424795	661.657464707081	1101.382510133635	561.249977683000	578.734829815760	1083.374210561531	475.858377595393	585.618123814964	1173.168471591389	761.402905430802	371.936978148744	1111.324931129805	635.596056628537	300.469789709889	1214.007460547065	574.446104004885	358.368430799512	1233.113176190932	506.970540731219	356.455877986172	1213.823698809227	434.382023398529	345.659489296794	1138.543795419411	308.667323438222	297.079111593093	1220.341078451928	204.754781804328	351.268869378933	1044.173817837430	391.474879451733	597.472323033491	962.647616002061	300.688690630277	668.438168267064	983.634067082878	199.813175732487	604.546532720900	831.322212433765	43.700347555478	585.045860986913	1002.532235263652	96.155936665695	615.641825555451	915.741380740078	36.717937801343	658.249128747574	1123.569985935764	43.370661128000	643.018705116262	1122.964944109161	37.779782492026	390.597494088275	1195.502471481915	36.754397030300	308.838092991921	1275.190272301245	104.011805544194	332.448690421370	1404.741887503789	59.614307853242	301.903060673421	930.375026933909	1088.414773819795	247.798714410295	911.332036834920	830.369588751204	231.465980654868	1274.242660685153	1123.320291328568	757.430094058479	1453.482855774735	1263.529365062610	660.559667216736	
73	53.315714285714	906.596158081271	1000.239166125774	522.206449658956	1060.391838809546	1423.461492106819	320.711356734507	1186.015515809789	1355.872228722003	465.098635736968	1131.059701053861	1430.893650283005	648.844114578406	1069.876220768666	1488.121333708699	477.399357459835	1145.142202717731	932.177452140781	614.135557944329	1102.770429274167	954.834980440018	342.760979784282	1144.206196501152	720.259088596559	588.352867835885	1046.263243699497	626.113021900100	659.280390342636	1102.364149277782	560.037625889937	576.732048492589	1083.950153341906	474.190225082833	583.739975601819	1174.770198181202	759.815374774452	369.403073435729	1111.653750616182	634.603782582963	298.778936650924	1214.110689642372	573.215247441585	357.066775921820	1232.124657713757	505.128480066870	355.498858867128	1212.745208438731	432.398994097831	344.645730792390	1136.515035388552	307.152572071805	296.270922137904	1216.934654611905	202.743054984337	351.323648951211	1043.395890684115	390.485935594038	595.841389083774	960.814866965244	301.098891050705	667.440953099491	980.267549617787	199.680901992378	603.964505202745	826.270185553121	44.592027635347	585.264835681596	997.752284848872	96.275583810802	615.653511870816	910.751585775027	37.122131287627	658.319957551084	1118.615155785851	42.812716708999	643.126120466750	1116.975309496875	37.622683876917	391.074560898506	1189.441960721701	35.874842216972	309.198302519950	1270.416680304013	101.430880303685	333.350582756469	1399.341585635267	54.798085117190	302.561646438421	934.103686326808	1086.498754089770	244.170806451429	917.569655378361	828.129448691848	228.183902646337	1276.102970894991	1123.042694847255	753.675505901203	1453.134614895228	1265.272694666053	655.753401550509	
74	53.328571428571	908.574256833203	999.770960829157	519.366794511433	1061.820092675151	1422.713950418641	317.186420030114	1187.482591188101	1355.573150446930	461.777441546206	1132.264774651064	1430.825402485068	645.355959789823	1071.075985863039	1487.729759633682	473.745764689266	1147.246818498643	931.617211994057	611.109833824363	1104.613545821482	954.490476862308	339.903959364943	1146.140999881025	719.489094579343	585.698108221773	1047.830881941036	625.601773033068	656.742081773694	1103.834597421503	558.967936660101	574.513078806193	1085.235517451400	472.478166838828	581.831509518791	1176.412127439347	758.967006259450	366.718476836475	1112.442331106943	634.168277610968	296.878932709321	1214.635360136270	572.588060872691	355.531936206114	1231.591818616215	503.899484267931	354.387617776102	1212.178621443021	430.984212815256	343.526029506824	1135.198584004242	306.229299934277	295.035704247400	1214.030088658144	201.326767869087	351.166940399628	1043.118262739548	389.526244004077	594.165003321638	959.363850538474	301.679404129697	666.362329621320	977.188174468282	199.706641478371	603.378389513166	821.280971203436	45.917672347388	585.520054982483	993.139965579842	96.481036500605	615.690609240610	905.837491310939	37.745558468044	658.406385255218	1113.720718052819	42.229861616978	643.229202020166	1111.710675968911	37.690407498499	391.276467909577	1184.133336082634	35.460028307872	309.323592123984	1266.053079322993	99.676492411651	333.985273098177	1394.485580929481	51.434735728973	303.021325220033	938.442538420493	1084.549402729655	240.265631674003	924.898693601671	825.850469310909	224.586366769370	1277.249237053016	1122.505282107980	750.074941752458	1453.049661969391	1265.608616629634	651.153374541480	
